<?xml version="1.0" standalone="no"?>
<!DOCTYPE svg PUBLIC "-//W3C//DTD SVG 20010904//EN"
 "http://www.w3.org/TR/2001/REC-SVG-20010904/DTD/svg10.dtd">
<svg version="1.0" xmlns="http://www.w3.org/2000/svg"
 width="512.000000pt" height="512.000000pt" viewBox="0 0 512.000000 512.000000"
 preserveAspectRatio="xMidYMid meet">
<metadata>
Created by potrace 1.14, written by Peter Selinger 2001-2017
</metadata>
<g transform="translate(0.000000,512.000000) scale(0.100000,-0.100000)"
fill="#000000" stroke="none">
<path d="M2655 4731 c-89 -22 -175 -92 -253 -204 -78 -114 -120 -213 -137
-325 -5 -31 -11 -42 -21 -38 -44 17 -206 28 -344 24 -119 -4 -183 -12 -275
-33 -468 -106 -908 -417 -1188 -840 -85 -129 -190 -348 -242 -505 -231 -706
-109 -1453 330 -2015 84 -108 260 -275 375 -357 349 -248 843 -399 1396 -428
889 -46 1687 279 2202 895 451 539 597 1250 388 1889 -155 473 -476 821 -936
1015 -53 23 -54 24 -30 33 142 55 391 82 540 59 170 -26 183 -26 217 3 91 77
25 193 -162 287 -161 80 -348 86 -561 18 -54 -17 -176 -67 -272 -111 -195 -89
-244 -109 -320 -131 -71 -22 -66 -7 8 21 71 28 158 103 198 171 24 41 27 55
26 136 -1 145 -56 254 -149 296 -78 36 -160 19 -282 -57 -147 -92 -249 -207
-378 -427 -22 -37 -44 -66 -49 -64 -5 2 -19 16 -30 31 -17 22 -21 42 -21 104
0 89 23 147 127 315 66 109 75 150 41 196 -33 44 -117 61 -198 42z m109 -113
c-4 -7 -28 -44 -53 -83 -110 -173 -156 -321 -132 -428 28 -127 145 -213 218
-162 11 8 56 72 98 142 106 176 168 248 284 331 181 131 275 107 310 -80 22
-123 -45 -213 -202 -270 -129 -47 -165 -143 -75 -198 74 -45 182 -18 473 115
206 94 297 128 398 149 191 40 373 1 487 -104 24 -22 41 -42 39 -44 -2 -2 -38
3 -79 10 -91 17 -320 19 -410 5 -100 -16 -210 -47 -298 -85 -95 -40 -212 -103
-212 -115 0 -5 19 -11 43 -14 203 -28 507 -181 703 -354 236 -208 414 -534
484 -889 28 -141 38 -412 20 -562 -39 -335 -171 -653 -393 -947 -78 -103 -309
-334 -412 -412 -228 -172 -459 -292 -735 -381 -252 -81 -476 -119 -770 -129
-556 -18 -1112 112 -1498 351 -813 505 -1103 1623 -661 2554 105 222 229 393
416 572 296 285 655 456 1032 491 149 14 284 4 441 -34 l95 -23 0 110 c0 100
3 118 29 181 53 129 163 267 240 301 41 18 130 19 120 2z"/>
<path d="M1822 3458 c-42 -21 -61 -69 -78 -194 -22 -173 1 -250 85 -275 48
-14 87 2 112 46 21 36 44 239 37 322 -4 48 -10 61 -37 85 -34 30 -77 36 -119
16z"/>
<path d="M2552 3390 c-42 -26 -58 -65 -71 -171 -16 -123 -14 -177 9 -224 42
-87 146 -100 186 -23 31 60 48 320 25 376 -25 59 -90 78 -149 42z"/>
<path d="M1870 2794 c-8 -1 -36 -6 -62 -9 -67 -9 -78 -23 -78 -103 1 -172 35
-283 111 -367 68 -74 138 -107 238 -113 132 -8 237 34 328 131 79 83 132 190
148 299 5 36 3 47 -14 62 -25 23 -204 71 -337 91 -88 13 -290 19 -334 9z"/>
</g>
</svg>
